<?xml version="1.0" encoding="utf-8"?>
<!-- Generator: Adobe Illustrator 27.8.1, SVG Export Plug-In . SVG Version: 6.00 Build 0)  -->
<svg version="1.1" id="Layer_2_00000109721039133540251850000013649384209936836774_"
	 xmlns="http://www.w3.org/2000/svg" xmlns:xlink="http://www.w3.org/1999/xlink" x="0px" y="0px" viewBox="0 0 133.8 136.6"
	 style="enable-background:new 0 0 133.8 136.6;" xml:space="preserve">
<style type="text/css">
	.st0{fill:none;stroke:#000000;stroke-width:2.5512;stroke-miterlimit:10;}
	.st1{fill-rule:evenodd;clip-rule:evenodd;}
</style>
<path class="st0" d="M30.9,17.6v-7c0-3.1,2.6-5.7,5.9-5.7h72.8l19.7,18.2v104.1c0,3.2-2.7,5.8-5.9,5.8H36.8c-3.3,0-5.9-2.6-5.9-5.7
	V54.4"/>
<path d="M109.5,5L109.5,5l2.9,15.3c0.6,3.1,3.7,5.2,6.9,4.6l9.8-1.7c-1.4-1.4-4.4-4.2-7.8-7.3C115.8,10.7,109.5,5,109.5,5z"/>
<path class="st1" d="M89.4,20l4.5-4.7H57V20H89.4z"/>
<path d="M89,33.9l17.6-18.1h-6.4L85.4,30.9L89,33.9z"/>
<path d="M102.6,40.8c0,4.6-3.8,8.4-8.4,8.4c-3.7,0-6.9-2.4-8-5.8l-0.7-2.1l-3.8,3.8l0.3,0.8c2,4.7,6.6,8,12.1,8
	c7.2,0,13.1-5.9,13.1-13.1c0-4.8-2.6-8.9-6.4-11.2l-0.9-0.5l-3.5,3.5l1.6,0.8C100.8,34.8,102.6,37.5,102.6,40.8L102.6,40.8z"/>
<path class="st1" d="M74.2,52.7V24h-4.7v28.8L74.2,52.7L74.2,52.7z"/>
<g>
	<polygon points="59.2,99.4 63.6,99.5 63.6,91 71.9,91 71.9,87.4 63.6,87.4 63.6,82.5 72.8,82.5 72.8,78.9 59.2,78.9 	"/>
	<path d="M77.7,77.9c-0.6,0-1.1,0.2-1.6,0.6c-0.5,0.4-0.7,0.9-0.7,1.5c0,0.6,0.3,1.1,0.7,1.5c0.4,0.4,1,0.6,1.6,0.6
		c0.7,0,1.2-0.2,1.6-0.6c0.5-0.4,0.7-0.9,0.7-1.5c0-0.6-0.3-1.1-0.7-1.5C78.9,78.1,78.3,77.9,77.7,77.9z"/>
	<polygon points="75.6,99.4 79.9,99.5 79.9,84.1 75.6,84.1 	"/>
	<rect x="83.2" y="78.9" width="4.3" height="20.5"/>
	<path d="M104.9,92.8v-1.2c0-1.3-0.3-2.5-0.6-3.4c-0.3-0.9-0.8-1.8-1.5-2.4c-0.6-0.7-1.4-1.2-2.3-1.5c-0.8-0.3-1.8-0.5-2.8-0.5
		c-1.5,0-2.8,0.3-3.9,1c-1.1,0.7-2,1.6-2.6,2.8s-0.9,2.6-0.9,4.2c0,1.6,0.3,3,0.9,4.2c0.6,1.1,1.4,2,2.6,2.7c1.2,0.7,2.5,1,4.1,1
		c1.3,0.1,2.4-0.1,3.2-0.5c1-0.4,1.8-0.9,2.4-1.6c0.6-0.7,1-1.6,1.2-2.5l-3.9-0.3c-0.1,0.4-0.3,0.7-0.6,1s-0.6,0.5-1,0.6
		c-0.4,0.1-0.8,0.2-1.3,0.2c-0.7,0-1.3-0.1-1.8-0.4c-0.5-0.3-0.9-0.7-1.2-1.3s-0.4-1.2-0.4-2v-0.1H104.9z M96.1,87.5
		c0.5-0.3,1.1-0.4,1.7-0.4c0.6,0,1.1,0.2,1.6,0.4c0.5,0.2,0.8,0.6,1.1,1.1c0.3,0.4,0.4,1,0.4,1.6h-6.4c0-0.5,0.1-1.1,0.4-1.5
		C95.2,88.2,95.6,87.8,96.1,87.5z"/>
</g>
<g>
	<path d="M66.6,66.8c-0.4-0.3-0.8-0.5-1.2-0.7c-0.4-0.2-0.9-0.4-1.3-0.5l-1.4-0.4c-0.4-0.1-0.6-0.2-1-0.3c-0.4-0.1-0.7-0.3-0.9-0.5
		s-0.5-0.5-0.6-0.7c-0.1-0.2-0.2-0.5-0.2-0.9c0-0.5,0.1-0.9,0.4-1.3c0.3-0.4,0.6-0.7,1.1-0.9s1.1-0.3,1.7-0.3c0.9,0,1.6,0.3,2.2,0.7
		c0.6,0.4,0.9,1,1,1.8l1.2,0.2c0-0.7-0.2-1.4-0.6-1.9c-0.3-0.6-0.9-0.9-1.5-1.3c-0.6-0.4-1.3-0.5-2.2-0.5c-0.9,0-1.6,0.2-2.3,0.5
		c-0.7,0.3-1.2,0.7-1.6,1.3c-0.4,0.5-0.6,1.2-0.6,1.9c0,0.8,0.3,1.5,0.9,2.1c0.5,0.6,1.4,1,2.4,1.3l1.6,0.5c0.6,0.2,1.1,0.4,1.5,0.6
		c0.4,0.2,0.8,0.5,1,0.8c0.3,0.3,0.4,0.7,0.4,1.2s-0.2,1-0.5,1.4c-0.3,0.3-0.7,0.7-1.2,0.9s-1.1,0.3-1.8,0.3c-0.7,0-1.2-0.1-1.7-0.3
		c-0.5-0.3-0.9-0.5-1.2-0.9s-0.5-0.9-0.5-1.4h-1.3c0.1,0.7,0.3,1.3,0.7,1.9c0.4,0.6,0.9,1,1.6,1.3c0.7,0.4,1.5,0.5,2.4,0.5
		c1,0,1.8-0.1,2.5-0.5c0.7-0.4,1.2-0.8,1.6-1.4c0.4-0.6,0.6-1.3,0.6-2c0-0.6-0.1-1.1-0.3-1.5C67.3,67.4,67,67.1,66.6,66.8z"/>
	<path d="M74.4,72c-0.1,0-0.2,0-0.4,0c-0.3,0-0.6,0-0.8-0.1c-0.3-0.1-0.5-0.3-0.6-0.5c-0.1-0.2-0.2-0.6-0.2-1v-6.6h2.1v-1h-2.1v-2.4
		h-1.2l0,2.4h-1.5v1h1.5l0.1,6.8c0,0.6,0.1,1,0.4,1.4c0.3,0.4,0.6,0.7,1,0.9c0.4,0.2,0.8,0.3,1.2,0.3c0.2,0,0.5-0.1,0.6-0.1
		s0.3-0.1,0.4-0.1l-0.2-1.1C74.6,72,74.5,72,74.4,72z"/>
	<path d="M83.3,63.3c-0.4-0.2-0.8-0.4-1.2-0.5c-0.4,0-0.8-0.1-1.2-0.1c-0.5,0-1,0.1-1.5,0.2c-0.5,0.1-1,0.4-1.4,0.7s-0.8,0.7-1,1.3
		l1.1,0.4c0.2-0.4,0.5-0.8,1-1.1c0.5-0.3,1-0.5,1.8-0.5s1.4,0.2,1.8,0.6c0.4,0.4,0.6,0.9,0.6,1.6v0.2c0,0.3-0.1,0.5-0.3,0.6
		c-0.2,0.1-0.5,0.1-0.9,0.2c-0.3,0.1-0.8,0.1-1.4,0.2c-0.6,0.1-1.2,0.2-1.6,0.3c-0.4,0.1-0.9,0.3-1.2,0.5c-0.3,0.3-0.6,0.6-0.8,0.9
		c-0.2,0.4-0.3,0.8-0.3,1.3c0,0.7,0.1,1.2,0.4,1.7s0.7,0.8,1.2,1.1s1.1,0.4,1.7,0.4c0.5,0,1-0.1,1.4-0.4c0.5-0.2,0.8-0.4,1.1-0.7
		c0.3-0.3,0.5-0.6,0.6-0.9h0.1v1.6h1.2V66c0-0.7-0.1-1.3-0.3-1.7C84,63.9,83.7,63.5,83.3,63.3z M83.3,69.2c0,0.5-0.1,1-0.4,1.5
		c-0.3,0.5-0.7,0.8-1.1,1.1c-0.4,0.3-1,0.4-1.6,0.4c-0.6,0-1-0.3-1.5-0.6c-0.5-0.3-0.7-0.8-0.7-1.4c0-0.4,0.1-0.7,0.3-1
		c0.2-0.2,0.5-0.5,0.9-0.6c0.4-0.1,0.9-0.2,1.5-0.3c0.2,0,0.4-0.1,0.7-0.1c0.3,0,0.5,0,0.8-0.1c0.3-0.1,0.5-0.1,0.7-0.2
		c0.2,0,0.3-0.1,0.4-0.2V69.2z"/>
	<path d="M89.8,64.2c0.5-0.3,1-0.5,1.7-0.5s1.3,0.2,1.8,0.6c0.5,0.4,0.8,0.9,0.9,1.5h1.2c-0.1-0.7-0.3-1.2-0.7-1.7s-0.8-0.8-1.4-1.1
		c-0.5-0.3-1.1-0.4-1.8-0.4c-0.9,0-1.6,0.2-2.3,0.7s-1.2,1.1-1.6,1.9C87.2,66,87,66.9,87,67.9s0.2,1.9,0.6,2.7
		c0.4,0.8,0.9,1.4,1.6,1.9s1.5,0.7,2.4,0.7c0.7,0.1,1.2-0.3,1.7-0.5s1-0.6,1.3-1.1c0.4-0.4,0.6-1,0.7-1.6h-1.2
		c-0.1,0.4-0.3,0.8-0.5,1.1c-0.2,0.3-0.5,0.5-0.9,0.7c-0.3,0.2-0.8,0.3-1.2,0.3c-0.6,0-1.2-0.1-1.7-0.5c-0.5-0.4-0.9-0.9-1.2-1.5
		c-0.3-0.6-0.4-1.4-0.4-2.2s0.1-1.6,0.4-2.2C88.9,65,89.3,64.5,89.8,64.2z"/>
	<polygon points="104.3,73 105.8,73 101.2,67.3 105.6,62.9 104.1,62.9 99.3,67.7 99.2,67.7 99.2,59.5 98,59.5 98,73 99.2,73.1 
		99.2,69.1 100.4,68 	"/>
</g>
<g>
	<path d="M67.9,115.3h4.4c0,1-0.2,1.8-0.6,2.5c-0.4,0.7-1,1.3-1.7,1.7c-0.7,0.4-1.5,0.6-2.5,0.6s-2-0.3-2.8-0.8s-1.4-1.3-1.9-2.3
		s-0.7-2.2-0.7-3.7s0.2-2.7,0.7-3.7c0.4-1,1.1-1.8,1.9-2.3s1.7-0.8,2.7-0.8c0.6,0,1.1,0,1.6,0.2c0.5,0.2,0.9,0.4,1.3,0.7
		c0.4,0.3,0.7,0.7,1,1.1c0.3,0.4,0.5,0.9,0.7,1.4l2.8,0.1c-0.2-0.9-0.5-1.6-0.9-2.4c-0.4-0.8-0.9-1.4-1.6-1.9
		c-0.6-0.5-1.4-0.9-2.2-1.2s-1.7-0.4-2.7-0.4c-1.2,0-2.2,0.2-3.2,0.6c-0.9,0.4-1.8,1-2.5,1.8s-1.3,1.8-1.7,2.9
		c-0.4,1.2-0.6,2.5-0.6,3.9c0,1.9,0.4,3.5,1,4.9c0.6,1.4,1.5,2.5,2.8,3.2c1.3,0.7,2.7,1.1,4.3,1.1c1.4,0,2.7-0.3,3.8-0.9
		c1.1-0.6,1.9-1.5,2.6-2.6c0.7-1.1,1-2.4,1-3.9v-2h-7V115.3z"/>
	<path d="M87.9,110.1c-0.6-0.6-1.2-0.9-1.9-1.2s-1.4-0.4-2.2-0.4c-1.3,0-2.4,0.3-3.3,0.9c-1,0.6-1.7,1.4-2.2,2.5
		c-0.5,1-0.8,2.2-0.8,3.6c0,1.4,0.3,2.6,0.8,3.6s1.2,1.8,2.2,2.4c0.9,0.6,2.1,0.9,3.4,0.9c1,0,1.9-0.2,2.6-0.6
		c0.7-0.3,1.4-0.8,1.9-1.3s0.9-1.2,1.1-1.9l-2.5-0.4c-0.2,0.5-0.4,0.8-0.7,1.1c-0.3,0.2-0.7,0.5-1.1,0.6c-0.4,0.1-0.8,0.2-1.3,0.2
		c-0.8,0-1.5-0.2-2-0.5s-1-0.8-1.3-1.4c-0.3-0.5-0.4-1.2-0.5-2h9.6v-0.9c0-1.2-0.2-2.2-0.5-3.1C88.9,111.3,88.5,110.7,87.9,110.1z
		 M80.1,114.2c0-0.6,0.1-1.2,0.4-1.7c0.3-0.6,0.8-1.1,1.3-1.4c0.5-0.3,1.2-0.5,1.9-0.5s1.3,0.2,1.8,0.5c0.5,0.4,0.9,0.8,1.2,1.3
		s0.4,1.1,0.4,1.8H80.1z"/>
	<path d="M103.3,110.9c-0.4-0.8-0.9-1.3-1.6-1.7c-0.7-0.4-1.5-0.6-2.4-0.6c-1,0-1.8,0.2-2.5,0.6c-0.7,0.4-1.2,1-1.5,1.7h-0.2v-2.2
		h-2.5v13.4h2.6v-8c0-0.7,0.2-1.2,0.5-1.7s0.6-0.8,1.1-1.1c0.4-0.3,1-0.4,1.6-0.4c0.9,0,1.5,0.2,2.1,0.8c0.6,0.6,0.8,1.3,0.8,2.3
		v8.2h2.6v-8.5C103.9,112.6,103.7,111.7,103.3,110.9z"/>
</g>
<g>
	<path d="M43.8,14H7.3c-2,0-3.6,1.6-3.6,3.6v36c0,2,1.6,3.6,3.6,3.6h36.5c2,0,3.6-1.6,3.6-3.6v-36C47.4,15.6,45.8,14,43.8,14z
		 M40.1,25.9L40.1,25.9v19.4v0.1c0,0.7-0.4,1.3-1,1.6l-6,2.9c-0.6,0.3-1.3,0.2-1.8-0.2c-0.1-0.1-0.2-0.1-0.3-0.2L19.6,39.1l-5,3.8
		c-0.4,0.3-1.1,0.3-1.5-0.1l-1.6-1.4c-0.5-0.5-0.5-1.3,0-1.8l4.3-4l-4.3-3.9c-0.5-0.5-0.5-1.3,0-1.8l1.6-1.4
		c0.4-0.4,1.1-0.4,1.5-0.1l5,3.8L31,21.7c0.6-0.6,1.4-0.7,2.1-0.4l6,2.9C39.7,24.5,40.1,25.1,40.1,25.9L40.1,25.9z"/>
	<polygon points="32.8,42.2 32.8,29.1 24.2,35.6 	"/>
</g>
</svg>
